<svg width="46" height="48" viewBox="0 0 46 48" fill="none" xmlns="http://www.w3.org/2000/svg">
<path fill-rule="evenodd" clip-rule="evenodd" d="M23.0521 0C17.0294 0 11.5427 1.98933 8.29606 3.61467C8.00273 3.76133 7.72895 3.90444 7.47473 4.044C6.97073 4.31867 6.54139 4.57467 6.20006 4.8L9.89339 10.2373L11.6321 10.9293C18.4267 14.3573 27.5387 14.3573 34.3347 10.9293L36.3081 9.90533L39.8001 4.8C39.0759 4.32948 38.3239 3.90336 37.5481 3.524C34.3174 1.916 28.9614 0 23.0534 0M14.4641 6.15467C13.1565 5.9086 11.8649 5.58446 10.5961 5.184C13.6374 3.83333 18.1694 2.4 23.0534 2.4C26.4361 2.4 29.6347 3.088 32.2801 3.96C29.1801 4.396 25.8721 5.136 22.7201 6.04667C20.2401 6.764 17.3414 6.68667 14.4641 6.15467ZM35.7441 12.9067L35.4161 13.072C27.9414 16.8427 18.0267 16.8427 10.5521 13.072L10.2414 12.9147C-0.989276 25.236 -9.56261 47.996 23.0521 47.996C55.6667 47.996 46.8854 24.8133 35.7441 12.9067ZM21.6667 24C20.9595 24 20.2812 24.281 19.7811 24.781C19.281 25.2811 19.0001 25.9594 19.0001 26.6667C19.0001 27.3739 19.281 28.0522 19.7811 28.5523C20.2812 29.0524 20.9595 29.3333 21.6667 29.3333V24ZM24.3334 21.3333V20H21.6667V21.3333C20.2522 21.3333 18.8957 21.8952 17.8955 22.8954C16.8953 23.8956 16.3334 25.2522 16.3334 26.6667C16.3334 28.0812 16.8953 29.4377 17.8955 30.4379C18.8957 31.4381 20.2522 32 21.6667 32V37.3333C20.5067 37.3333 19.5187 36.5933 19.1507 35.556C19.0961 35.3863 19.008 35.2292 18.8917 35.0942C18.7753 34.9591 18.6331 34.8487 18.4733 34.7696C18.3136 34.6904 18.1396 34.6441 17.9616 34.6334C17.7837 34.6227 17.6054 34.6478 17.4373 34.7072C17.2692 34.7666 17.1147 34.8591 16.983 34.9792C16.8513 35.0993 16.745 35.2447 16.6704 35.4066C16.5958 35.5685 16.5545 35.7438 16.5488 35.922C16.5431 36.1001 16.5733 36.2777 16.6374 36.444C17.005 37.4841 17.6861 38.3846 18.5868 39.0214C19.4875 39.6583 20.5636 40.0002 21.6667 40V41.3333H24.3334V40C25.7479 40 27.1044 39.4381 28.1046 38.4379C29.1048 37.4377 29.6667 36.0812 29.6667 34.6667C29.6667 33.2522 29.1048 31.8956 28.1046 30.8954C27.1044 29.8952 25.7479 29.3333 24.3334 29.3333V24C25.4934 24 26.4814 24.74 26.8494 25.7773C26.904 25.947 26.9921 26.1041 27.1084 26.2392C27.2248 26.3742 27.367 26.4846 27.5268 26.5638C27.6865 26.6429 27.8605 26.6892 28.0385 26.6999C28.2164 26.7106 28.3947 26.6856 28.5628 26.6262C28.7309 26.5668 28.8854 26.4743 29.0171 26.3541C29.1489 26.234 29.2552 26.0887 29.3297 25.9267C29.4043 25.7648 29.4457 25.5896 29.4513 25.4114C29.457 25.2332 29.4269 25.0557 29.3627 24.8893C28.9951 23.8493 28.314 22.9488 27.4133 22.3119C26.5126 21.675 25.4365 21.3332 24.3334 21.3333ZM24.3334 32V37.3333C25.0406 37.3333 25.7189 37.0524 26.219 36.5523C26.7191 36.0522 27.0001 35.3739 27.0001 34.6667C27.0001 33.9594 26.7191 33.2811 26.219 32.7811C25.7189 32.281 25.0406 32 24.3334 32Z" fill="white"/>
</svg>
