<svg width="54" height="46" viewBox="0 0 54 46" fill="none" xmlns="http://www.w3.org/2000/svg">
<path d="M27 0C27.6532 8.61615e-05 28.2836 0.239883 28.7717 0.673908C29.2598 1.10793 29.5716 1.706 29.648 2.35467L29.6667 2.66667V5.33333H33.6667C38.914 5.33467 43.9506 7.39816 47.6905 11.0789C51.4304 14.7596 53.574 19.7627 53.659 25.0093C53.744 30.2559 51.7637 35.3258 48.145 39.1258C44.5263 42.9257 39.5592 45.1513 34.3147 45.3227L33.6667 45.3333H20.3334C15.086 45.332 10.0494 43.2685 6.30953 39.5878C2.56964 35.9071 0.426087 30.904 0.341068 25.6574C0.25605 20.4107 2.23638 15.3409 5.85505 11.5409C9.47372 7.74095 14.4408 5.51535 19.6854 5.344L20.3334 5.33333H24.3334V2.66667C24.3334 1.95942 24.6143 1.28115 25.1144 0.781048C25.6145 0.280951 26.2928 0 27 0ZM36.3334 18.6667C35.6261 18.6667 34.9478 18.9476 34.4477 19.4477C33.9476 19.9478 33.6667 20.6261 33.6667 21.3333V22.6667H32.3334C31.6261 22.6667 30.9478 22.9476 30.4477 23.4477C29.9476 23.9478 29.6667 24.6261 29.6667 25.3333C29.6667 26.0406 29.9476 26.7189 30.4477 27.2189C30.9478 27.719 31.6261 28 32.3334 28H33.6667V29.3333C33.6667 30.0406 33.9476 30.7189 34.4477 31.2189C34.9478 31.719 35.6261 32 36.3334 32C37.0406 32 37.7189 31.719 38.219 31.2189C38.7191 30.7189 39 30.0406 39 29.3333V28H40.3334C41.0406 28 41.7189 27.719 42.219 27.2189C42.7191 26.7189 43 26.0406 43 25.3333C43 24.6261 42.7191 23.9478 42.219 23.4477C41.7189 22.9476 41.0406 22.6667 40.3334 22.6667H39V21.3333C39 20.6261 38.7191 19.9478 38.219 19.4477C37.7189 18.9476 37.0406 18.6667 36.3334 18.6667ZM17.6667 18.6667C15.8986 18.6667 14.2029 19.369 12.9526 20.6193C11.7024 21.8695 11 23.5652 11 25.3333C11 27.1014 11.7024 28.7971 12.9526 30.0474C14.2029 31.2976 15.8986 32 17.6667 32C19.4348 32 21.1305 31.2976 22.3807 30.0474C23.631 28.7971 24.3334 27.1014 24.3334 25.3333C24.3334 23.5652 23.631 21.8695 22.3807 20.6193C21.1305 19.369 19.4348 18.6667 17.6667 18.6667ZM17.6667 24C18.0203 24 18.3594 24.1405 18.6095 24.3905C18.8595 24.6406 19 24.9797 19 25.3333C19 25.687 18.8595 26.0261 18.6095 26.2761C18.3594 26.5262 18.0203 26.6667 17.6667 26.6667C17.3131 26.6667 16.9739 26.5262 16.7239 26.2761C16.4738 26.0261 16.3334 25.687 16.3334 25.3333C16.3334 24.9797 16.4738 24.6406 16.7239 24.3905C16.9739 24.1405 17.3131 24 17.6667 24Z" fill="white"/>
</svg>
