<svg width="54" height="54" viewBox="0 0 54 54" fill="none" xmlns="http://www.w3.org/2000/svg">
<path fill-rule="evenodd" clip-rule="evenodd" d="M38.032 7.60799L42.912 12.488C50.0827 19.6613 53.6667 23.2453 53.6667 27.6987C53.6667 32.1547 50.0827 35.7387 42.912 42.9093C35.7387 50.0827 32.1547 53.6667 27.6987 53.6667C23.2453 53.6667 19.6587 50.0827 12.488 42.912L7.60799 38.032C3.48799 33.9093 1.42666 31.8507 0.661323 29.176C-0.106677 26.5013 0.549323 23.6613 1.86132 17.984L2.61599 14.7093C3.71732 9.93066 4.26932 7.54133 5.90399 5.90399C7.53866 4.26666 9.93066 3.71733 14.7093 2.61599L17.984 1.85866C23.664 0.549327 26.5013 -0.106674 29.176 0.65866C31.8507 1.42666 33.912 3.48799 38.032 7.60799ZM24.7227 33.208C22.928 31.416 22.9413 28.84 24.016 26.8C23.7499 26.4157 23.6269 25.9504 23.6682 25.4848C23.7095 25.0193 23.9125 24.5829 24.2421 24.2514C24.5716 23.92 25.0068 23.7144 25.4722 23.6704C25.9375 23.6264 26.4035 23.7468 26.7893 24.0107C27.696 23.5307 28.6907 23.2747 29.6827 23.2853C30.2131 23.2903 30.7198 23.5057 31.0914 23.8843C31.463 24.2629 31.6689 24.7736 31.664 25.304C31.659 25.8344 31.4436 26.3412 31.065 26.7127C30.6864 27.0843 30.1758 27.2903 29.6453 27.2853C29.0279 27.3081 28.4443 27.5736 28.0213 28.024C26.9893 29.056 27.2587 30.0907 27.5493 30.3813C27.8427 30.672 28.8747 30.9413 29.9067 29.9093C31.9973 27.8187 35.608 27.1253 37.92 29.4373C39.7147 31.232 39.7013 33.808 38.6267 35.848C38.891 36.2324 39.0127 36.697 38.9707 37.1617C38.9286 37.6263 38.7255 38.0616 38.3964 38.3922C38.0673 38.7229 37.633 38.9281 37.1686 38.9724C36.7042 39.0166 36.239 38.8972 35.8533 38.6347C34.6567 39.2912 33.2686 39.51 31.928 39.2533C31.4082 39.1465 30.9521 38.8376 30.66 38.3945C30.3679 37.9514 30.2639 37.4105 30.3707 36.8907C30.4775 36.3708 30.7864 35.9147 31.2295 35.6227C31.6725 35.3306 32.2135 35.2265 32.7333 35.3333C33.2053 35.432 33.968 35.2773 34.6213 34.624C35.6533 33.5893 35.384 32.5573 35.0933 32.2667C34.8 31.976 33.768 31.7067 32.736 32.7387C30.6453 34.8293 27.0347 35.5227 24.7227 33.208ZM21.72 22.448C22.2152 21.9526 22.6079 21.3646 22.8758 20.7175C23.1438 20.0704 23.2816 19.3768 23.2815 18.6764C23.2813 17.976 23.1433 17.2825 22.8751 16.6354C22.607 15.9884 22.214 15.4005 21.7187 14.9053C21.2233 14.4102 20.6353 14.0174 19.9881 13.7495C19.341 13.4816 18.6474 13.3437 17.947 13.3439C17.2466 13.344 16.5531 13.4821 15.9061 13.7502C15.259 14.0184 14.6712 14.4113 14.176 14.9067C13.1759 15.9071 12.6143 17.2637 12.6145 18.6783C12.6148 20.0928 13.1769 21.4493 14.1773 22.4493C15.1777 23.4494 16.5344 24.011 17.9489 24.0108C19.3635 24.0105 20.7199 23.4484 21.72 22.448Z" fill="white"/>
</svg>
